<svg id="svg" xmlns="http://www.w3.org/2000/svg" xmlns:xlink="http://www.w3.org/1999/xlink" width="400" height="400" viewBox="0, 0, 400,400"><g id="svgg"><path id="path0" d="M128.149 11.108 C 118.468 14.011,120.478 24.853,132.598 35.101 C 144.792 45.411,147.767 50.204,154.984 71.173 C 163.598 96.199,170.305 101.424,180.600 91.129 C 185.215 86.514,185.400 85.633,186.814 61.496 C 187.231 54.370,188.200 47.992,189.145 46.141 C 193.696 37.230,184.324 29.692,150.871 15.356 C 138.460 10.038,134.308 9.261,128.149 11.108 M277.008 68.470 C 275.485 69.500,273.603 70.947,272.826 71.685 C 264.934 79.183,262.067 80.504,244.875 84.568 C 198.859 95.445,23.819 134.273,14.127 135.754 C 3.719 137.344,10.617 143.555,32.007 151.852 L 42.408 155.887 67.060 147.782 C 101.004 136.621,177.476 118.294,181.012 120.472 C 183.805 122.193,186.285 131.208,186.266 139.578 C 186.235 153.686,181.274 168.644,165.962 200.795 L 159.251 214.886 148.970 205.156 C 116.674 174.591,86.842 161.826,65.231 169.325 C 52.760 173.653,60.673 188.433,73.704 185.152 C 93.874 180.073,114.122 191.757,143.206 225.256 L 148.779 231.675 144.792 237.463 C 116.816 278.084,70.034 320.425,20.194 350.237 C 4.074 359.879,1.108 362.330,1.108 366.014 C 1.108 369.394,5.026 368.786,18.636 363.293 C 67.532 343.560,109.229 315.216,155.801 270.053 C 169.168 257.091,172.021 254.805,173.400 255.950 C 183.002 263.919,229.595 318.698,256.077 353.154 C 275.321 378.190,281.508 384.015,290.181 385.256 C 307.170 387.687,383.157 382.757,398.125 378.252 C 404.567 376.314,399.861 371.893,386.150 367.003 C 314.824 341.562,290.260 326.209,205.251 253.935 L 185.280 236.956 191.353 226.788 C 206.253 201.839,228.037 153.205,229.060 142.608 L 229.680 136.186 219.793 126.299 C 208.326 114.832,207.219 116.202,230.059 113.587 C 251.270 111.159,277.751 109.729,303.601 109.616 C 336.380 109.473,342.231 107.177,339.022 95.715 C 334.761 80.497,288.976 60.382,277.008 68.470 " stroke="none" fill="#000000" fill-rule="evenodd"></path></g></svg>