<svg id="svg" version="1.1" xmlns="http://www.w3.org/2000/svg" xmlns:xlink="http://www.w3.org/1999/xlink" width="400" height="400" viewBox="0, 0, 400,400"><g id="svgg"><path id="path0" d="M264.889 63.298 C 227.083 66.914,203.278 88.956,197.671 125.539 C 196.564 132.766,196.281 140.623,196.273 164.356 L 196.267 186.311 170.489 186.311 L 144.711 186.311 144.711 216.356 L 144.711 246.400 170.489 246.400 L 196.267 246.400 196.267 323.200 L 196.267 400.000 227.200 400.000 L 258.133 400.000 258.133 323.202 L 258.133 246.405 283.992 246.313 L 309.851 246.222 313.471 218.133 C 315.462 202.684,317.197 189.204,317.326 188.178 L 317.562 186.311 287.811 186.311 L 258.060 186.311 258.243 163.822 C 258.480 134.805,258.866 132.503,264.496 126.503 C 270.655 119.940,274.721 119.115,300.889 119.113 L 319.644 119.111 319.644 92.291 C 319.644 67.055,319.608 65.459,319.022 65.285 C 318.169 65.032,306.620 64.094,298.844 63.646 C 289.826 63.127,268.916 62.913,264.889 63.298 " stroke="none" fill="#fbfbfb" fill-rule="evenodd"></path><path id="path1" d="M56.810 0.550 C 28.589 4.958,6.836 25.816,1.020 54.044 L 0.178 58.133 0.178 200.000 L 0.178 341.867 0.999 345.920 C 6.472 372.944,26.675 393.219,53.886 398.996 L 57.778 399.822 127.022 399.917 L 196.267 400.012 196.267 323.206 L 196.267 246.400 170.489 246.400 L 144.711 246.400 144.711 216.356 L 144.711 186.311 170.489 186.311 L 196.267 186.311 196.273 164.356 C 196.285 126.729,197.573 117.003,204.469 102.452 C 217.623 74.697,242.189 62.213,281.956 63.072 C 296.066 63.377,316.757 64.612,319.022 65.285 C 319.608 65.459,319.644 67.055,319.644 92.291 L 319.644 119.111 300.889 119.113 C 274.721 119.115,270.655 119.940,264.496 126.503 C 258.866 132.503,258.480 134.805,258.243 163.822 L 258.060 186.311 287.811 186.311 L 317.562 186.311 317.326 188.178 C 317.197 189.204,315.462 202.684,313.471 218.133 L 309.851 246.222 283.992 246.313 L 258.133 246.405 258.133 323.212 L 258.133 400.020 300.178 399.919 L 342.222 399.819 346.114 398.994 C 373.299 393.235,393.530 372.933,399.001 345.920 L 399.822 341.867 399.822 200.000 L 399.822 58.133 399.001 54.080 C 393.530 27.067,373.314 6.779,346.114 1.004 L 342.222 0.178 201.067 0.122 C 83.481 0.075,59.393 0.147,56.810 0.550 " stroke="none" fill="#435c9b" fill-rule="evenodd"></path></g></svg>