<svg id="svg" version="1.1" xmlns="http://www.w3.org/2000/svg" xmlns:xlink="http://www.w3.org/1999/xlink" width="400" height="400" viewBox="0, 0, 400,400"><g id="svgg"><path id="path0" d="M55.965 0.667 C 27.682 5.139,4.937 28.048,0.631 56.399 C -0.172 61.688,-0.329 337.558,0.469 342.867 C 4.911 372.450,28.069 395.479,57.484 399.561 C 61.928 400.178,338.753 400.149,342.867 399.531 C 372.407 395.096,395.096 372.407,399.531 342.867 C 400.186 338.508,400.192 62.209,399.538 57.407 C 395.604 28.534,372.849 5.346,343.831 0.639 C 338.214 -0.272,61.734 -0.245,55.965 0.667 M214.100 55.579 C 276.424 60.861,330.063 107.241,344.673 168.482 C 361.999 241.107,323.865 314.726,254.767 342.047 C 245.731 345.620,242.206 345.948,239.547 343.466 C 237.018 341.105,237.114 342.163,236.851 313.883 C 236.560 282.524,235.982 279.304,229.284 271.706 C 226.985 269.097,226.661 269.376,232.972 268.540 C 271.855 263.389,291.903 242.357,294.582 203.905 C 295.929 184.579,292.013 170.827,281.631 158.421 L 279.693 156.104 280.471 153.649 C 283.939 142.704,283.507 131.557,279.145 119.441 L 278.023 116.323 275.703 116.033 C 269.452 115.252,254.861 120.716,242.351 128.523 L 237.197 131.739 233.023 130.725 C 212.083 125.637,187.901 125.642,166.930 130.737 L 162.710 131.762 159.989 129.946 C 147.449 121.582,129.586 114.842,123.427 116.151 L 121.692 116.520 120.313 120.625 C 118.158 127.043,117.361 132.075,117.361 139.262 C 117.361 145.597,117.645 147.521,119.417 153.210 L 120.316 156.094 118.349 158.416 C 108.213 170.383,104.185 184.263,105.407 203.013 C 107.929 241.728,126.684 262.346,164.642 268.133 C 167.983 268.642,171.167 269.145,171.719 269.251 C 172.678 269.436,172.636 269.540,170.738 271.651 C 167.563 275.181,163.557 284.578,163.557 288.493 C 163.557 290.391,153.464 292.944,145.770 292.992 C 134.307 293.064,128.010 289.083,120.041 276.724 C 113.760 266.984,103.361 260.846,94.663 261.744 C 88.894 262.339,90.346 267.674,97.228 271.170 C 101.974 273.581,108.166 281.739,112.107 290.777 C 115.816 299.281,118.629 302.864,124.248 306.237 C 132.249 311.041,147.449 312.722,161.497 310.356 L 163.124 310.082 163.124 324.752 C 163.124 341.337,162.990 342.106,159.766 344.099 C 153.160 348.181,124.258 334.500,104.557 317.963 C 37.909 262.022,32.975 161.311,93.848 99.390 C 125.624 67.067,167.902 51.664,214.100 55.579 " stroke="none" fill="#000000" fill-rule="evenodd"></path></g></svg>