<svg id="svg" xmlns="http://www.w3.org/2000/svg" xmlns:xlink="http://www.w3.org/1999/xlink" width="400" height="400" viewBox="0, 0, 400,400"><g id="svgg"><path id="path0" d="M80.098 12.265 C 74.072 15.364,75.021 19.202,84.483 30.000 C 92.166 38.768,93.526 41.817,94.963 53.500 C 95.975 61.721,99.409 77.205,102.523 87.591 C 103.621 91.252,16.149 114.000,0.975 114.000 C 0.398 114.000,0.000 118.740,0.000 125.615 L 0.000 137.230 5.750 136.514 C 8.913 136.121,20.950 133.360,32.500 130.379 C 92.226 114.967,126.221 107.301,158.376 101.994 C 183.534 97.842,185.000 97.173,185.000 89.852 C 185.000 79.521,157.596 69.066,146.892 75.312 C 143.257 77.434,127.564 84.000,126.130 84.000 C 125.519 84.000,126.871 65.887,128.536 51.771 C 131.901 23.229,129.965 17.541,115.349 13.026 C 107.547 10.616,84.280 10.114,80.098 12.265 M313.000 16.074 C 300.905 22.358,292.028 24.846,257.500 31.625 C 211.479 40.661,209.278 41.152,206.077 43.099 C 201.089 46.133,203.163 49.197,214.490 55.531 C 222.756 60.154,226.625 60.567,237.924 58.032 C 252.569 54.747,256.605 56.919,256.311 67.926 C 256.179 72.859,246.628 120.627,242.439 137.303 L 240.862 143.582 217.798 149.249 C 178.328 158.947,176.501 161.534,202.681 170.659 L 215.332 175.069 223.718 172.035 C 228.331 170.366,232.476 169.000,232.930 169.000 C 234.224 169.000,215.899 231.377,214.029 233.334 C 213.591 233.793,200.242 236.551,184.366 239.464 C 137.984 247.973,135.912 249.236,155.500 257.064 C 167.976 262.049,173.796 262.051,195.258 257.076 C 264.565 241.011,325.506 233.911,379.250 235.642 L 400.000 236.310 400.000 220.827 L 400.000 205.343 394.924 204.172 C 387.003 202.344,380.680 202.738,373.761 205.491 C 361.011 210.564,341.000 214.542,341.000 212.004 C 341.000 208.603,362.355 161.012,366.708 154.711 C 370.322 149.480,369.041 147.245,356.512 136.928 C 335.851 119.917,333.095 118.956,319.325 123.970 C 309.721 127.466,276.815 136.148,276.053 135.387 C 275.795 135.128,280.275 121.077,286.009 104.163 L 296.435 73.410 293.749 67.919 C 292.271 64.899,288.359 59.302,285.055 55.481 L 279.048 48.534 289.774 46.795 C 306.621 44.063,322.090 42.146,340.500 40.510 C 364.712 38.358,371.855 34.533,366.611 26.529 C 357.396 12.465,330.165 7.155,313.000 16.074 M118.900 146.205 C 113.183 150.369,98.789 156.287,77.000 163.433 C 51.161 171.907,47.413 175.135,56.625 180.977 C 66.841 187.456,69.813 187.320,102.500 178.880 C 115.150 175.613,129.173 172.001,133.661 170.852 C 161.562 163.711,161.476 153.635,133.446 145.512 C 122.829 142.436,124.162 142.372,118.900 146.205 M318.468 150.899 C 319.913 155.451,306.624 213.776,303.410 216.990 C 302.835 217.565,299.695 218.472,296.432 219.005 C 293.169 219.538,281.950 221.333,271.500 222.993 C 261.050 224.653,251.262 226.269,249.750 226.585 C 245.840 227.401,246.066 225.786,252.400 207.652 C 255.370 199.150,259.931 185.287,262.535 176.846 C 268.153 158.641,264.938 161.188,289.992 155.095 C 319.310 147.965,317.616 148.214,318.468 150.899 M112.000 207.118 C 107.325 208.811,92.118 214.149,78.207 218.982 C 43.297 231.108,42.102 232.827,63.825 239.663 C 73.736 242.782,75.316 242.642,112.500 235.361 C 143.068 229.375,145.956 228.085,145.985 220.396 C 146.011 213.465,141.558 210.058,127.003 205.870 C 123.430 204.841,120.505 204.009,120.503 204.020 C 120.501 204.031,116.675 205.425,112.000 207.118 M129.500 269.604 C 96.351 282.139,48.108 293.000,25.573 293.000 C 9.228 293.000,7.949 294.724,15.566 306.484 C 18.999 311.783,21.439 317.692,25.684 330.984 C 42.281 382.952,56.248 400.503,67.942 384.082 C 72.473 377.718,89.958 371.295,110.235 368.546 C 116.431 367.706,125.098 366.525,129.496 365.920 C 144.387 363.874,150.680 358.724,145.409 352.899 C 141.620 348.712,156.581 314.694,168.027 301.469 C 173.004 295.718,173.054 293.172,168.291 287.901 C 156.220 274.539,138.523 266.192,129.500 269.604 M323.500 274.502 C 284.207 288.019,231.182 295.217,206.040 290.448 C 189.043 287.224,184.926 289.484,190.835 298.795 C 195.116 305.542,196.331 308.893,201.988 329.552 C 209.816 358.144,216.180 374.154,223.946 384.798 C 229.911 392.973,240.670 397.525,244.128 393.337 C 250.875 385.164,293.986 380.277,330.014 383.602 C 338.949 384.426,340.572 383.008,341.873 373.237 C 342.626 367.575,343.811 364.269,347.248 358.237 C 349.672 353.982,355.219 342.445,359.575 332.601 C 364.871 320.634,368.458 313.840,370.401 312.101 C 377.629 305.632,378.000 305.114,378.000 301.481 C 378.000 289.170,338.172 269.455,323.500 274.502 M123.342 296.000 C 121.765 310.948,113.398 344.995,111.090 345.854 C 97.183 351.034,70.653 359.951,68.429 360.193 L 65.620 360.500 60.268 340.049 C 57.324 328.801,54.025 317.584,52.936 315.122 C 50.314 309.194,48.852 309.860,79.537 302.987 C 94.366 299.666,108.975 296.313,112.000 295.536 C 118.906 293.764,123.558 293.954,123.342 296.000 M325.475 298.750 C 325.214 300.262,324.325 305.550,323.501 310.500 C 320.858 326.367,316.211 348.357,314.476 353.207 C 312.522 358.665,311.692 359.059,297.000 361.490 C 283.519 363.721,268.114 366.802,256.565 369.576 C 251.101 370.889,246.479 371.812,246.295 371.628 C 245.966 371.299,232.500 320.981,231.384 315.908 L 230.813 313.316 262.657 307.098 C 328.448 294.250,326.201 294.549,325.475 298.750 " stroke="none" fill="#000000" fill-rule="evenodd"></path></g></svg>