<svg id="svg" version="1.1" xmlns="http://www.w3.org/2000/svg" xmlns:xlink="http://www.w3.org/1999/xlink" width="400" height="400" viewBox="0, 0, 400,400"><g id="svgg"><path id="path0" d="M311.400 79.253 C 308.320 79.666,304.189 79.958,302.219 79.902 L 298.638 79.800 297.391 85.600 C 294.249 100.207,290.183 108.693,285.989 109.402 C 285.048 109.561,283.773 110.175,283.031 110.826 C 282.314 111.456,281.282 112.141,280.738 112.348 C 279.397 112.857,278.117 117.916,277.599 124.751 C 277.389 127.528,277.029 132.265,276.799 135.279 C 276.570 138.292,276.178 141.770,275.930 143.007 C 275.551 144.896,275.581 145.470,276.116 146.594 C 276.675 147.765,276.707 148.871,276.375 155.466 C 276.166 159.610,275.733 168.220,275.414 174.600 C 274.313 196.579,274.187 206.914,274.986 209.555 C 275.640 211.713,275.643 211.957,275.031 213.140 C 274.301 214.552,274.054 214.289,277.284 215.546 C 277.887 215.781,279.274 217.213,280.410 218.775 C 282.688 221.908,284.118 223.200,285.306 223.200 C 285.746 223.200,287.694 223.746,289.636 224.412 C 293.757 225.827,294.005 225.777,299.075 222.484 C 301.817 220.703,301.977 220.518,301.988 219.101 C 301.997 217.985,302.337 217.219,303.322 216.101 C 306.684 212.285,307.134 210.582,305.789 206.768 C 305.453 205.815,304.988 202.778,304.757 200.018 C 304.526 197.258,304.211 193.920,304.058 192.600 C 303.820 190.556,303.923 189.858,304.756 187.897 L 305.734 185.594 304.867 184.671 C 303.711 183.440,303.773 182.241,305.035 181.414 C 306.066 180.738,306.069 180.721,305.789 176.868 L 305.509 173.000 306.800 174.200 C 307.511 174.860,308.416 176.144,308.812 177.054 C 309.571 178.797,311.103 180.158,313.874 181.549 C 314.794 182.011,315.811 182.766,316.134 183.227 C 317.694 185.454,327.238 181.113,337.956 173.300 C 347.570 166.292,350.048 165.577,351.464 169.400 C 353.299 174.355,352.298 176.369,345.200 182.003 C 343.990 182.963,342.844 183.881,342.652 184.042 C 342.224 184.403,344.554 185.631,349.800 187.810 C 354.059 189.578,354.435 189.948,355.068 193.000 L 355.400 194.600 357.800 194.853 C 366.670 195.790,365.646 195.836,368.372 194.383 C 374.738 190.989,379.752 182.974,381.354 173.630 C 382.694 165.811,381.784 162.376,375.960 153.265 C 374.191 150.497,372.712 148.118,372.672 147.977 C 372.632 147.837,373.614 146.300,374.854 144.561 C 378.731 139.124,380.532 134.595,381.038 129.007 L 381.312 125.981 379.341 126.051 C 378.257 126.089,376.407 125.801,375.230 125.410 C 373.689 124.898,372.408 124.761,370.659 124.919 C 368.090 125.152,366.239 124.654,365.251 123.462 C 364.396 122.431,363.593 122.649,360.316 124.800 C 358.641 125.900,356.926 126.800,356.507 126.800 C 355.470 126.800,350.942 121.248,345.904 113.800 C 343.672 110.500,340.564 106.000,338.997 103.800 C 337.430 101.600,335.290 98.200,334.242 96.244 C 331.840 91.765,325.437 81.754,324.048 80.308 C 322.143 78.324,319.787 78.128,311.400 79.253 M240.200 105.583 C 238.660 105.990,235.662 106.976,233.537 107.774 C 231.413 108.573,228.533 109.473,227.137 109.774 C 225.532 110.121,220.486 112.293,213.400 115.688 C 207.240 118.640,199.711 122.197,196.669 123.593 C 192.761 125.387,190.634 126.622,189.420 127.802 C 187.666 129.506,183.758 131.917,178.400 134.599 C 173.217 137.194,169.881 139.529,170.231 140.316 C 170.804 141.601,170.895 144.404,170.384 145.019 C 170.110 145.349,169.957 145.669,170.043 145.731 C 170.129 145.792,170.693 146.150,171.295 146.527 C 172.565 147.321,174.791 150.986,174.796 152.291 C 174.801 153.386,180.006 158.509,182.720 160.090 C 186.711 162.414,190.701 161.982,194.332 158.831 C 197.307 156.249,205.680 150.710,206.022 151.097 C 206.314 151.427,207.434 155.814,208.032 158.971 C 208.239 160.060,208.679 164.304,209.010 168.400 C 209.342 172.497,209.815 176.468,210.062 177.225 C 210.813 179.523,211.376 207.148,210.948 220.722 L 210.693 228.844 207.886 230.257 C 206.342 231.035,202.030 233.550,198.304 235.848 C 194.577 238.145,190.468 240.560,189.171 241.215 C 185.862 242.885,184.490 245.681,185.577 248.541 C 186.991 252.258,195.725 262.242,199.000 263.884 C 202.720 265.750,205.279 264.738,215.418 257.394 C 230.107 246.754,236.828 243.160,243.600 242.321 C 244.368 242.226,244.578 241.989,244.505 241.301 C 244.436 240.645,244.813 240.152,245.905 239.469 C 249.398 237.285,256.420 233.744,259.200 232.764 C 262.145 231.726,262.220 231.665,263.296 229.446 C 263.934 228.132,264.793 227.004,265.350 226.750 C 266.089 226.413,266.408 225.809,266.753 224.090 C 268.098 217.393,266.385 213.200,262.304 213.200 C 261.193 213.200,260.358 212.899,259.527 212.200 C 258.503 211.338,257.941 211.199,255.469 211.194 C 253.704 211.190,252.215 210.966,251.600 210.610 C 251.050 210.292,250.369 209.913,250.086 209.767 C 249.803 209.622,247.319 210.425,244.565 211.552 C 241.811 212.678,239.433 213.600,239.279 213.600 C 239.126 213.600,238.943 208.155,238.873 201.500 C 238.782 192.751,238.593 188.846,238.192 187.400 C 237.482 184.842,237.116 182.036,235.610 167.600 C 234.237 154.451,233.115 146.219,232.030 141.341 L 231.305 138.082 238.326 134.741 C 251.865 128.298,263.600 119.912,263.600 116.680 C 263.600 112.846,259.988 108.603,256.711 108.587 C 254.320 108.575,254.004 108.466,252.392 107.086 C 249.534 104.640,245.607 104.156,240.200 105.583 M319.698 129.100 C 322.200 132.345,325.849 137.227,327.807 139.949 L 331.367 144.897 330.390 145.689 C 328.189 147.471,312.573 156.086,307.447 158.346 C 307.069 158.513,307.286 156.555,308.218 151.400 C 308.536 149.640,309.074 146.490,309.414 144.400 C 310.251 139.252,314.532 123.200,315.067 123.200 C 315.111 123.200,317.195 125.855,319.698 129.100 M128.400 154.673 C 124.170 156.150,123.365 157.264,123.031 162.109 C 122.504 169.765,120.630 175.145,113.582 189.233 C 111.427 193.541,108.740 199.111,107.612 201.612 C 106.270 204.586,104.974 206.789,103.866 207.980 C 102.934 208.981,101.278 211.150,100.186 212.800 C 95.712 219.558,91.196 222.717,86.623 222.288 C 84.032 222.045,83.144 220.944,81.610 216.073 C 80.860 213.695,80.002 211.853,79.238 210.982 C 78.563 210.213,77.938 208.959,77.807 208.109 C 76.895 202.181,74.495 199.242,65.692 193.271 L 60.784 189.943 57.092 190.377 C 55.061 190.616,52.889 190.916,52.265 191.045 C 51.297 191.245,50.884 191.016,49.465 189.499 C 47.684 187.596,46.309 186.998,42.766 186.585 L 40.532 186.324 38.441 188.662 C 33.414 194.282,31.624 201.082,28.612 226.000 C 27.033 239.067,26.332 294.007,27.678 299.228 C 31.282 313.208,45.570 330.467,52.163 328.805 C 54.955 328.102,57.754 326.639,58.761 325.358 C 60.849 322.704,61.825 313.955,60.597 308.902 C 59.815 305.684,60.005 303.883,61.518 300.149 L 62.349 298.099 61.323 296.170 C 60.003 293.691,60.178 289.708,61.804 285.240 L 62.881 282.279 61.942 279.240 C 60.588 274.857,60.568 255.577,61.918 255.606 C 62.073 255.609,63.753 256.839,65.650 258.339 C 84.593 273.311,103.963 266.190,125.870 236.200 C 129.952 230.612,136.800 219.779,136.800 218.910 C 136.800 218.009,137.862 217.103,139.485 216.619 C 140.572 216.295,141.775 218.694,141.394 220.427 C 141.266 221.012,141.630 224.530,142.204 228.245 C 146.508 256.086,153.936 271.392,164.914 275.038 C 167.475 275.888,168.797 275.039,172.953 269.872 C 174.620 267.798,176.466 265.787,177.054 265.401 L 178.124 264.700 177.869 251.650 C 177.518 233.658,176.255 225.937,172.202 216.992 C 171.133 214.632,170.886 213.501,170.652 209.894 C 170.315 204.683,169.087 200.219,166.456 194.640 C 164.747 191.018,164.502 190.154,164.275 186.944 C 163.972 182.685,162.979 179.230,161.250 176.419 C 159.673 173.856,159.676 173.824,161.600 173.247 C 163.634 172.638,163.625 172.593,161.027 170.026 C 159.831 168.846,158.454 167.040,157.967 166.012 C 157.217 164.434,156.793 164.043,155.227 163.487 C 154.208 163.125,152.232 161.840,150.838 160.633 C 148.253 158.394,148.378 158.445,142.685 157.345 C 142.072 157.227,140.974 156.516,140.245 155.765 L 138.919 154.400 133.960 154.432 C 131.232 154.449,128.730 154.557,128.400 154.673 " stroke="none" fill="#fbfbfb" fill-rule="evenodd"></path><path id="path1" d="M56.834 0.432 C 31.859 3.687,9.378 22.845,2.651 46.605 C -0.033 56.084,0.200 41.528,0.200 200.000 L 0.200 343.000 1.140 347.400 C 3.163 356.873,6.126 363.805,11.443 371.506 C 21.265 385.733,35.522 395.204,52.625 398.864 L 57.000 399.800 200.000 399.800 L 343.000 399.800 347.400 398.860 C 356.875 396.837,363.812 393.871,371.504 388.557 C 385.718 378.737,395.221 364.440,398.860 347.400 L 399.800 343.000 399.800 200.000 L 399.800 57.000 398.864 52.625 C 393.254 26.410,374.384 7.450,347.600 1.116 L 343.800 0.217 201.600 0.157 C 123.390 0.124,58.245 0.248,56.834 0.432 M320.845 78.808 C 323.879 79.383,328.258 85.083,334.242 96.244 C 335.290 98.200,337.430 101.600,338.997 103.800 C 340.564 106.000,343.672 110.500,345.904 113.800 C 350.942 121.248,355.470 126.800,356.507 126.800 C 356.926 126.800,358.641 125.900,360.316 124.800 C 363.593 122.649,364.396 122.431,365.251 123.462 C 366.239 124.654,368.090 125.152,370.659 124.919 C 372.408 124.761,373.689 124.898,375.230 125.410 C 376.407 125.801,378.257 126.089,379.341 126.051 L 381.312 125.981 381.038 129.007 C 380.532 134.595,378.731 139.124,374.854 144.561 C 373.614 146.300,372.632 147.837,372.672 147.977 C 372.712 148.118,374.191 150.497,375.960 153.265 C 381.784 162.376,382.694 165.811,381.354 173.630 C 379.752 182.974,374.738 190.989,368.372 194.383 C 365.646 195.836,366.670 195.790,357.800 194.853 L 355.400 194.600 355.068 193.000 C 354.435 189.948,354.059 189.578,349.800 187.810 C 344.554 185.631,342.224 184.403,342.652 184.042 C 342.844 183.881,343.990 182.963,345.200 182.003 C 352.298 176.369,353.299 174.355,351.464 169.400 C 350.048 165.577,347.570 166.292,337.956 173.300 C 327.238 181.113,317.694 185.454,316.134 183.227 C 315.811 182.766,314.794 182.011,313.874 181.549 C 311.103 180.158,309.571 178.797,308.812 177.054 C 308.416 176.144,307.511 174.860,306.800 174.200 L 305.509 173.000 305.789 176.868 C 306.069 180.721,306.066 180.738,305.035 181.414 C 303.773 182.241,303.711 183.440,304.867 184.671 L 305.734 185.594 304.756 187.897 C 303.923 189.858,303.820 190.556,304.058 192.600 C 304.211 193.920,304.526 197.258,304.757 200.018 C 304.988 202.778,305.453 205.815,305.789 206.768 C 307.134 210.582,306.684 212.285,303.322 216.101 C 302.337 217.219,301.997 217.985,301.988 219.101 C 301.977 220.518,301.817 220.703,299.075 222.484 C 294.005 225.777,293.757 225.827,289.636 224.412 C 287.694 223.746,285.746 223.200,285.306 223.200 C 284.118 223.200,282.688 221.908,280.410 218.775 C 279.274 217.213,277.887 215.781,277.284 215.546 C 274.054 214.289,274.301 214.552,275.031 213.140 C 275.643 211.957,275.640 211.713,274.986 209.555 C 274.187 206.914,274.313 196.579,275.414 174.600 C 275.733 168.220,276.166 159.610,276.375 155.466 C 276.707 148.871,276.675 147.765,276.116 146.594 C 275.581 145.470,275.551 144.896,275.930 143.007 C 276.178 141.770,276.570 138.292,276.799 135.279 C 277.029 132.265,277.389 127.528,277.599 124.751 C 278.117 117.916,279.397 112.857,280.738 112.348 C 281.282 112.141,282.314 111.456,283.031 110.826 C 283.773 110.175,285.048 109.561,285.989 109.402 C 290.183 108.693,294.249 100.207,297.391 85.600 L 298.638 79.800 302.219 79.902 C 304.189 79.958,308.320 79.666,311.400 79.253 C 318.421 78.311,318.260 78.318,320.845 78.808 M249.226 105.201 C 250.011 105.419,251.435 106.267,252.392 107.086 C 254.004 108.466,254.320 108.575,256.711 108.587 C 259.988 108.603,263.600 112.846,263.600 116.680 C 263.600 119.912,251.865 128.298,238.326 134.741 L 231.305 138.082 232.030 141.341 C 233.115 146.219,234.237 154.451,235.610 167.600 C 237.116 182.036,237.482 184.842,238.192 187.400 C 238.593 188.846,238.782 192.751,238.873 201.500 C 238.943 208.155,239.126 213.600,239.279 213.600 C 239.433 213.600,241.811 212.678,244.565 211.552 C 247.319 210.425,249.803 209.622,250.086 209.767 C 250.369 209.913,251.050 210.292,251.600 210.610 C 252.215 210.966,253.704 211.190,255.469 211.194 C 257.941 211.199,258.503 211.338,259.527 212.200 C 260.358 212.899,261.193 213.200,262.304 213.200 C 266.385 213.200,268.098 217.393,266.753 224.090 C 266.408 225.809,266.089 226.413,265.350 226.750 C 264.793 227.004,263.934 228.132,263.296 229.446 C 262.220 231.665,262.145 231.726,259.200 232.764 C 256.420 233.744,249.398 237.285,245.905 239.469 C 244.813 240.152,244.436 240.645,244.505 241.301 C 244.578 241.989,244.368 242.226,243.600 242.321 C 236.828 243.160,230.107 246.754,215.418 257.394 C 205.279 264.738,202.720 265.750,199.000 263.884 C 195.725 262.242,186.991 252.258,185.577 248.541 C 184.490 245.681,185.862 242.885,189.171 241.215 C 190.468 240.560,194.577 238.145,198.304 235.848 C 202.030 233.550,206.342 231.035,207.886 230.257 L 210.693 228.844 210.948 220.722 C 211.376 207.148,210.813 179.523,210.062 177.225 C 209.815 176.468,209.342 172.497,209.010 168.400 C 208.679 164.304,208.239 160.060,208.032 158.971 C 207.434 155.814,206.314 151.427,206.022 151.097 C 205.680 150.710,197.307 156.249,194.332 158.831 C 190.701 161.982,186.711 162.414,182.720 160.090 C 180.006 158.509,174.801 153.386,174.796 152.291 C 174.791 150.986,172.565 147.321,171.295 146.527 C 170.693 146.150,170.129 145.792,170.043 145.731 C 169.957 145.669,170.110 145.349,170.384 145.019 C 170.895 144.404,170.804 141.601,170.231 140.316 C 169.881 139.529,173.217 137.194,178.400 134.599 C 183.758 131.917,187.666 129.506,189.420 127.802 C 190.634 126.622,192.761 125.387,196.669 123.593 C 199.711 122.197,207.240 118.640,213.400 115.688 C 220.486 112.293,225.532 110.121,227.137 109.774 C 228.533 109.473,231.413 108.573,233.537 107.774 C 240.918 105.000,245.688 104.218,249.226 105.201 M313.303 128.700 C 311.171 135.664,310.192 139.614,309.414 144.400 C 309.074 146.490,308.536 149.640,308.218 151.400 C 307.286 156.555,307.069 158.513,307.447 158.346 C 312.573 156.086,328.189 147.471,330.390 145.689 L 331.367 144.897 327.807 139.949 C 324.540 135.406,315.255 123.200,315.067 123.200 C 315.023 123.200,314.229 125.675,313.303 128.700 M140.245 155.765 C 140.974 156.516,142.072 157.227,142.685 157.345 C 148.378 158.445,148.253 158.394,150.838 160.633 C 152.232 161.840,154.208 163.125,155.227 163.487 C 156.793 164.043,157.217 164.434,157.967 166.012 C 158.454 167.040,159.831 168.846,161.027 170.026 C 163.625 172.593,163.634 172.638,161.600 173.247 C 159.676 173.824,159.673 173.856,161.250 176.419 C 162.979 179.230,163.972 182.685,164.275 186.944 C 164.502 190.154,164.747 191.018,166.456 194.640 C 169.087 200.219,170.315 204.683,170.652 209.894 C 170.886 213.501,171.133 214.632,172.202 216.992 C 176.255 225.937,177.518 233.658,177.869 251.650 L 178.124 264.700 177.054 265.401 C 176.466 265.787,174.620 267.798,172.953 269.872 C 168.797 275.039,167.475 275.888,164.914 275.038 C 153.936 271.392,146.508 256.086,142.204 228.245 C 141.630 224.530,141.266 221.012,141.394 220.427 C 141.775 218.694,140.572 216.295,139.485 216.619 C 137.862 217.103,136.800 218.009,136.800 218.910 C 136.800 219.779,129.952 230.612,125.870 236.200 C 103.963 266.190,84.593 273.311,65.650 258.339 C 63.753 256.839,62.073 255.609,61.918 255.606 C 60.568 255.577,60.588 274.857,61.942 279.240 L 62.881 282.279 61.804 285.240 C 60.178 289.708,60.003 293.691,61.323 296.170 L 62.349 298.099 61.518 300.149 C 60.005 303.883,59.815 305.684,60.597 308.902 C 61.825 313.955,60.849 322.704,58.761 325.358 C 57.754 326.639,54.955 328.102,52.163 328.805 C 45.570 330.467,31.282 313.208,27.678 299.228 C 26.332 294.007,27.033 239.067,28.612 226.000 C 31.624 201.082,33.414 194.282,38.441 188.662 L 40.532 186.324 42.766 186.585 C 46.309 186.998,47.684 187.596,49.465 189.499 C 50.884 191.016,51.297 191.245,52.265 191.045 C 52.889 190.916,55.061 190.616,57.092 190.377 L 60.784 189.943 65.692 193.271 C 74.495 199.242,76.895 202.181,77.807 208.109 C 77.938 208.959,78.563 210.213,79.238 210.982 C 80.002 211.853,80.860 213.695,81.610 216.073 C 83.144 220.944,84.032 222.045,86.623 222.288 C 91.196 222.717,95.712 219.558,100.186 212.800 C 101.278 211.150,102.934 208.981,103.866 207.980 C 104.974 206.789,106.270 204.586,107.612 201.612 C 108.740 199.111,111.427 193.541,113.582 189.233 C 120.630 175.145,122.504 169.765,123.031 162.109 C 123.336 157.689,123.711 156.936,126.247 155.662 C 128.615 154.473,128.662 154.465,133.960 154.432 L 138.919 154.400 140.245 155.765 " stroke="none" fill="#27516F" fill-rule="evenodd"></path></g></svg>