<svg id="svg" xmlns="http://www.w3.org/2000/svg" xmlns:xlink="http://www.w3.org/1999/xlink" width="400" height="400" viewBox="0, 0, 400,400" version="1.1"><g id="svgg"><path id="path0" d="M196.824 2.935 C 135.991 13.138,86.941 71.823,80.837 141.705 C 79.954 151.807,76.638 157.198,61.914 172.466 C 41.273 193.869,40.753 200.865,59.397 206.285 C 66.837 208.448,66.900 209.088,60.452 216.949 C 52.709 226.389,54.133 231.828,65.683 236.924 C 71.198 239.357,71.169 240.251,65.504 242.518 C 57.753 245.619,57.517 251.754,64.884 258.675 C 67.393 261.032,67.430 261.311,65.827 265.874 C 56.433 292.614,70.973 302.126,114.748 297.877 C 143.738 295.064,156.704 314.596,169.371 380.164 L 172.416 395.921 173.781 385.669 C 177.354 358.831,187.198 340.726,219.134 302.260 C 236.417 281.441,239.254 276.824,240.327 267.768 L 241.030 261.829 236.850 262.614 C 230.790 263.750,228.249 262.626,228.249 258.808 C 228.249 257.036,226.554 253.157,224.432 250.072 C 222.332 247.020,220.240 242.259,219.783 239.493 C 219.325 236.727,217.134 231.502,214.913 227.883 C 210.581 220.823,210.758 214.008,215.406 208.872 C 217.408 206.660,216.537 197.535,213.969 193.816 C 213.122 192.591,212.429 190.868,212.429 189.988 C 212.429 189.108,210.367 186.151,207.847 183.417 C 205.001 180.329,203.471 177.713,203.810 176.511 C 206.790 165.932,205.952 163.736,198.897 163.638 C 195.537 163.592,194.250 163.045,193.743 161.449 C 192.711 158.199,187.580 158.277,179.838 161.662 C 176.226 163.241,174.369 163.508,172.806 162.671 C 171.360 161.897,169.079 161.938,165.663 162.798 C 160.580 164.078,148.098 157.338,147.988 153.254 C 147.969 152.552,146.237 148.480,144.138 144.206 L 140.321 136.435 142.473 132.907 C 143.765 130.788,144.626 127.296,144.629 124.164 C 144.632 120.497,145.382 117.981,147.158 115.689 C 148.546 113.896,150.199 111.762,150.830 110.946 C 153.068 108.054,158.185 103.602,160.713 102.348 C 162.123 101.648,164.293 99.191,165.534 96.887 C 166.776 94.583,169.211 92.110,170.945 91.391 C 172.679 90.673,174.606 89.135,175.228 87.973 C 176.138 86.273,177.254 85.973,180.940 86.436 C 183.810 86.796,186.875 86.369,189.143 85.293 C 191.297 84.271,196.631 83.469,202.314 83.313 L 211.864 83.051 211.701 86.694 C 211.551 90.041,211.873 90.397,215.656 91.069 C 217.921 91.471,221.299 92.698,223.164 93.794 C 228.619 97.002,231.638 97.621,231.638 95.532 C 231.638 92.569,236.633 90.976,241.525 92.379 C 251.676 95.290,253.920 95.648,256.366 94.743 C 257.784 94.218,260.136 94.088,261.593 94.454 C 263.742 94.993,264.590 94.448,266.078 91.571 C 268.476 86.934,267.404 83.102,264.015 84.192 C 261.560 84.983,255.534 85.139,251.466 84.518 C 248.653 84.088,244.906 80.483,245.788 79.055 C 246.158 78.456,245.939 77.966,245.300 77.966 C 244.661 77.966,244.431 77.203,244.789 76.271 C 245.201 75.198,244.774 74.576,243.624 74.576 C 242.625 74.576,241.808 75.144,241.808 75.838 C 241.808 76.532,240.900 76.862,239.790 76.572 C 238.390 76.206,237.772 76.684,237.772 78.135 C 237.772 79.285,238.379 80.226,239.119 80.226 C 239.910 80.226,240.222 81.159,239.875 82.486 C 238.934 86.086,236.411 85.022,234.262 80.118 C 233.282 77.884,232.117 77.162,229.366 77.083 C 227.381 77.027,226.059 77.283,226.428 77.652 C 227.218 78.442,225.014 81.356,223.626 81.356 C 223.100 81.356,222.960 80.599,223.315 79.675 C 223.740 78.568,222.693 77.314,220.250 76.002 C 218.209 74.907,215.341 72.772,213.876 71.257 C 211.419 68.716,210.912 68.613,207.308 69.916 C 205.160 70.692,202.814 70.964,202.095 70.520 C 201.376 70.075,200.229 70.469,199.546 71.394 C 198.864 72.320,197.187 73.673,195.820 74.401 C 194.453 75.129,192.668 77.119,191.853 78.823 C 190.081 82.527,180.531 85.657,177.134 83.647 C 176.055 83.008,174.402 82.486,173.462 82.486 C 171.058 82.486,171.333 79.759,174.294 74.238 C 177.587 68.098,178.023 67.834,184.907 67.814 C 189.019 67.802,190.909 67.301,191.369 66.102 C 192.273 63.746,191.044 61.017,189.078 61.017 C 188.176 61.017,187.752 60.508,188.136 59.887 C 188.520 59.266,189.821 58.757,191.027 58.757 C 192.233 58.757,193.220 58.214,193.220 57.551 C 193.220 56.877,194.175 56.648,195.385 57.032 C 196.576 57.410,197.857 57.222,198.232 56.615 C 199.165 55.105,204.920 52.317,208.913 51.440 C 212.705 50.607,214.491 46.487,211.901 44.548 C 209.879 43.034,210.899 38.418,213.255 38.418 C 215.246 38.418,223.729 33.819,223.729 32.740 C 223.729 31.300,236.330 29.099,237.556 30.324 C 238.350 31.119,239.650 30.842,241.675 29.446 C 243.302 28.325,247.003 26.076,249.901 24.449 C 264.671 16.153,266.599 10.329,255.770 6.726 C 239.423 1.286,215.738 -0.237,196.824 2.935 M230.508 37.587 C 226.548 39.375,226.420 39.548,228.227 40.665 C 229.540 41.476,229.306 42.189,226.953 44.541 C 223.353 48.141,219.049 48.861,218.582 45.942 C 218.141 43.189,217.382 42.537,215.774 43.531 C 214.781 44.145,214.815 44.577,215.908 45.253 C 217.100 45.990,217.097 46.483,215.891 47.936 C 214.606 49.484,214.838 49.740,217.658 49.889 C 220.650 50.047,228.989 49.989,230.659 49.799 C 231.053 49.754,231.641 48.698,231.967 47.453 C 232.393 45.824,233.126 45.406,234.577 45.963 C 236.347 46.642,236.285 46.234,234.074 42.658 C 231.688 38.797,231.661 38.515,233.573 37.403 C 236.254 35.842,234.083 35.973,230.508 37.587 M261.344 64.760 C 262.331 67.330,258.094 68.425,255.848 66.179 C 253.408 63.739,252.752 63.921,250.552 67.645 C 247.663 72.535,251.026 75.475,257.027 73.305 C 260.251 72.139,261.570 72.118,263.307 73.203 C 265.889 74.815,275.020 75.079,274.052 73.513 C 273.691 72.928,271.117 71.312,268.333 69.921 C 265.332 68.422,263.387 66.718,263.556 65.735 C 263.713 64.822,263.125 63.827,262.249 63.522 C 261.166 63.145,260.877 63.541,261.344 64.760 M218.754 66.368 C 217.950 67.173,222.492 72.316,224.006 72.316 C 224.564 72.316,225.783 73.079,226.715 74.011 C 228.843 76.139,230.508 76.188,230.508 74.122 C 230.508 73.250,229.110 72.034,227.401 71.420 C 225.692 70.805,223.204 69.260,221.872 67.987 C 220.540 66.714,219.137 65.986,218.754 66.368 M297.187 101.718 C 297.859 102.973,299.403 104.621,300.617 105.379 C 301.831 106.138,302.833 107.526,302.842 108.464 C 302.858 109.978,302.985 109.979,303.972 108.475 C 304.900 107.061,305.200 107.201,305.782 109.322 C 306.713 112.721,309.744 112.535,312.917 108.885 L 315.508 105.906 312.674 106.617 C 309.136 107.505,302.725 104.883,300.838 101.777 C 298.890 98.570,295.473 98.515,297.187 101.718 M267.476 103.560 C 266.703 104.810,271.818 113.005,275.530 116.463 C 276.870 117.711,277.966 119.966,277.966 121.473 C 277.966 124.427,279.776 126.799,288.992 135.925 C 292.260 139.161,294.929 142.342,294.924 142.994 C 294.897 146.617,302.078 146.593,311.017 142.939 C 313.756 141.820,313.616 145.977,310.698 152.409 C 308.648 156.928,308.611 157.477,310.273 158.693 C 312.994 160.683,313.472 169.113,311.424 179.016 C 310.423 183.854,309.605 189.360,309.605 191.251 C 309.605 193.142,308.244 197.377,306.581 200.661 C 304.050 205.660,303.796 206.922,305.024 208.401 C 306.930 210.698,312.994 210.774,312.994 208.501 C 312.994 207.583,314.182 206.054,315.634 205.102 C 319.370 202.654,324.781 194.781,331.849 181.509 L 337.948 170.056 337.618 176.271 C 337.324 181.802,337.532 182.486,339.502 182.486 C 343.470 182.486,348.863 160.812,349.374 142.808 C 349.709 131.039,346.537 118.322,343.920 120.939 C 343.198 121.661,340.968 119.907,337.505 115.896 C 332.697 110.327,331.851 109.802,328.528 110.327 C 326.510 110.645,322.698 110.413,320.056 109.810 C 315.059 108.670,312.700 111.030,317.232 112.637 C 321.947 114.309,325.895 122.034,322.034 122.034 C 321.412 122.034,320.904 122.973,320.904 124.121 C 320.904 126.778,317.668 130.523,314.511 131.520 C 313.170 131.943,311.788 133.033,311.439 133.941 C 310.949 135.218,308.539 135.593,300.827 135.593 L 290.849 135.593 289.493 131.843 C 288.747 129.780,286.430 126.093,284.343 123.651 C 282.256 121.208,280.208 118.192,279.792 116.949 C 278.664 113.577,268.269 102.276,267.476 103.560 " stroke="none" fill="#2880FF" fill-rule="evenodd"></path></g></svg>