<svg id="svg" version="1.1" xmlns="http://www.w3.org/2000/svg" xmlns:xlink="http://www.w3.org/1999/xlink" width="400" height="400.51480051480047" viewBox="0, 0, 400,400.51480051480047"><g id="svgg"><path id="path0" d="M54.612 0.663 C 52.418 0.980,50.528 1.383,50.412 1.559 C 50.295 1.735,49.415 2.001,48.456 2.151 C 46.225 2.500,43.600 3.317,43.600 3.662 C 43.600 3.809,42.876 4.052,41.992 4.201 C 41.108 4.351,40.163 4.688,39.892 4.952 C 39.621 5.215,38.500 5.771,37.400 6.186 C 36.300 6.602,35.163 7.180,34.872 7.471 C 34.581 7.762,34.095 8.000,33.791 8.000 C 33.488 8.000,33.096 8.225,32.920 8.500 C 32.744 8.775,31.916 9.316,31.080 9.703 C 29.581 10.396,29.063 10.749,27.602 12.070 C 27.194 12.438,26.442 12.958,25.930 13.225 C 23.979 14.244,14.244 23.979,13.225 25.930 C 12.958 26.442,12.438 27.186,12.070 27.583 C 10.777 28.977,9.983 30.190,9.513 31.489 C 9.253 32.210,8.886 32.800,8.699 32.800 C 8.512 32.800,8.170 33.340,7.940 34.000 C 7.710 34.660,7.359 35.200,7.161 35.200 C 6.962 35.200,6.798 35.425,6.795 35.700 C 6.792 35.975,6.258 37.250,5.607 38.533 C 4.956 39.815,4.309 41.480,4.168 42.233 C 4.026 42.985,3.795 43.600,3.653 43.600 C 3.341 43.600,2.573 46.000,2.181 48.200 C 2.024 49.080,1.752 49.983,1.577 50.206 C 0.014 52.196,0.000 53.558,0.000 200.200 C -0.000 347.173,0.002 347.315,1.589 350.339 C 1.780 350.703,2.222 352.250,2.572 353.779 C 2.921 355.307,3.363 356.657,3.553 356.779 C 3.744 356.900,4.028 357.590,4.184 358.312 C 4.341 359.033,4.991 360.653,5.629 361.912 C 6.268 363.170,6.792 364.425,6.795 364.700 C 6.798 364.975,6.962 365.200,7.161 365.200 C 7.359 365.200,7.710 365.740,7.940 366.400 C 8.170 367.060,8.512 367.600,8.699 367.600 C 8.886 367.600,9.253 368.190,9.513 368.911 C 9.983 370.210,10.777 371.423,12.070 372.817 C 12.438 373.214,12.958 373.958,13.225 374.470 C 14.244 376.421,23.979 386.156,25.930 387.175 C 26.442 387.442,27.194 387.962,27.602 388.330 C 29.063 389.651,29.581 390.004,31.080 390.697 C 31.916 391.084,32.744 391.625,32.920 391.900 C 33.096 392.175,33.488 392.400,33.791 392.400 C 34.095 392.400,34.581 392.638,34.872 392.929 C 35.163 393.220,36.300 393.798,37.400 394.214 C 38.500 394.629,39.621 395.185,39.892 395.448 C 40.163 395.712,41.108 396.049,41.992 396.199 C 42.876 396.348,43.600 396.591,43.600 396.738 C 43.600 397.083,46.225 397.900,48.456 398.249 C 49.415 398.399,50.293 398.661,50.406 398.832 C 52.074 401.348,348.634 401.290,349.533 398.773 C 349.607 398.568,350.020 398.400,350.451 398.400 C 351.703 398.400,356.400 397.133,356.400 396.796 C 356.400 396.627,357.015 396.374,357.767 396.232 C 358.520 396.091,360.185 395.444,361.467 394.793 C 362.750 394.142,364.025 393.608,364.300 393.605 C 364.575 393.602,364.800 393.438,364.800 393.239 C 364.800 393.041,365.340 392.690,366.000 392.460 C 366.660 392.230,367.200 391.888,367.200 391.701 C 367.200 391.514,367.790 391.147,368.511 390.887 C 369.810 390.417,371.023 389.623,372.417 388.330 C 372.814 387.962,373.558 387.442,374.070 387.175 C 376.021 386.156,385.756 376.421,386.775 374.470 C 387.042 373.958,387.562 373.214,387.930 372.817 C 389.223 371.423,390.017 370.210,390.487 368.911 C 390.747 368.190,391.114 367.600,391.301 367.600 C 391.488 367.600,391.830 367.060,392.060 366.400 C 392.290 365.740,392.641 365.200,392.839 365.200 C 393.038 365.200,393.202 364.975,393.205 364.700 C 393.208 364.425,393.732 363.170,394.371 361.912 C 395.009 360.653,395.659 359.033,395.816 358.312 C 395.972 357.590,396.256 356.900,396.447 356.779 C 396.637 356.657,397.079 355.307,397.428 353.779 C 397.778 352.250,398.220 350.703,398.411 350.339 C 399.998 347.315,400.000 347.173,400.000 200.200 C 400.000 53.558,399.986 52.196,398.423 50.206 C 398.248 49.983,397.976 49.080,397.819 48.200 C 397.427 46.000,396.659 43.600,396.347 43.600 C 396.205 43.600,395.974 42.985,395.832 42.233 C 395.691 41.480,395.044 39.815,394.393 38.533 C 393.742 37.250,393.208 35.975,393.205 35.700 C 393.202 35.425,393.038 35.200,392.839 35.200 C 392.641 35.200,392.290 34.660,392.060 34.000 C 391.830 33.340,391.488 32.800,391.301 32.800 C 391.114 32.800,390.747 32.210,390.487 31.489 C 390.017 30.190,389.223 28.977,387.930 27.583 C 387.562 27.186,387.042 26.442,386.775 25.930 C 385.756 23.979,376.021 14.244,374.070 13.225 C 373.558 12.958,372.814 12.438,372.417 12.070 C 371.023 10.777,369.810 9.983,368.511 9.513 C 367.790 9.253,367.200 8.886,367.200 8.699 C 367.200 8.512,366.660 8.170,366.000 7.940 C 365.340 7.710,364.800 7.359,364.800 7.161 C 364.800 6.962,364.575 6.798,364.300 6.795 C 364.025 6.792,362.750 6.258,361.467 5.607 C 360.185 4.956,358.520 4.309,357.767 4.168 C 357.015 4.026,356.400 3.773,356.400 3.604 C 356.400 3.267,351.703 2.000,350.451 2.000 C 350.020 2.000,349.607 1.832,349.533 1.627 C 348.915 -0.103,66.306 -1.026,54.612 0.663 M140.000 200.200 L 140.000 305.600 113.000 305.600 L 86.000 305.600 86.000 200.200 L 86.000 94.800 113.000 94.800 L 140.000 94.800 140.000 200.200 M261.407 95.743 C 319.954 106.452,342.578 177.337,300.821 219.235 C 254.990 265.222,176.261 232.712,176.261 167.800 C 176.261 129.858,203.870 99.483,242.400 95.033 C 245.324 94.695,258.336 95.182,261.407 95.743 " stroke="none" fill="#e46c5c" fill-rule="evenodd"></path><path id="path1" d="M86.000 200.200 L 86.000 305.600 113.000 305.600 L 140.000 305.600 140.000 200.200 L 140.000 94.800 113.000 94.800 L 86.000 94.800 86.000 200.200 " stroke="none" fill="#142c54" fill-rule="evenodd"></path><path id="path2" d="M242.400 95.033 C 203.870 99.483,176.261 129.858,176.261 167.800 C 176.261 232.712,254.990 265.222,300.821 219.235 C 342.578 177.337,319.954 106.452,261.407 95.743 C 258.336 95.182,245.324 94.695,242.400 95.033 " stroke="none" fill="#fbfbfb" fill-rule="evenodd"></path></g></svg>