<svg id="svg" xmlns="http://www.w3.org/2000/svg" xmlns:xlink="http://www.w3.org/1999/xlink" width="400" height="398.83720930232556" viewBox="0, 0, 400,398.83720930232556"><g id="svgg"><path id="path0" d="M90.698 0.559 C 90.698 0.866,92.635 4.137,95.004 7.826 C 105.103 23.562,104.592 19.124,104.624 91.421 L 104.651 155.515 90.515 159.256 C 67.606 165.317,67.963 165.354,54.893 155.604 C 44.038 147.507,41.611 150.653,45.313 168.023 C 48.849 184.610,40.632 294.020,33.669 323.054 C 29.357 341.038,29.311 339.839,35.013 357.701 C 44.562 387.611,54.456 395.305,62.739 379.262 C 64.408 376.030,66.964 343.482,68.111 310.856 C 68.686 294.479,69.323 287.556,70.223 287.898 C 70.932 288.166,81.977 286.536,94.767 284.274 C 107.558 282.012,126.372 279.154,136.575 277.921 C 156.443 275.521,160.016 274.166,162.131 268.230 C 164.948 260.321,133.612 247.195,128.015 253.940 C 125.107 257.443,71.089 273.802,69.076 271.789 C 68.828 271.541,68.962 262.431,69.373 251.545 L 70.120 231.751 92.376 228.065 C 104.616 226.038,122.912 223.510,133.034 222.447 C 154.013 220.244,158.442 218.465,159.077 211.991 C 159.916 203.435,130.314 191.945,123.917 198.342 C 121.803 200.456,110.465 206.196,110.465 205.152 C 110.465 204.847,109.185 205.437,107.619 206.462 C 106.054 207.488,104.490 208.299,104.143 208.265 C 103.797 208.231,102.853 208.391,102.047 208.620 C 101.241 208.849,95.872 210.380,90.116 212.023 C 84.360 213.666,77.642 215.529,75.186 216.162 L 70.720 217.312 71.522 201.389 C 72.160 188.720,71.971 184.455,70.600 180.523 L 68.877 175.581 76.308 175.581 C 80.740 175.581,94.879 173.250,111.346 169.803 C 163.743 158.836,166.710 158.340,167.948 160.343 C 169.244 162.441,168.692 336.037,167.381 338.486 C 164.950 343.029,148.812 343.683,126.415 340.146 C 105.200 336.797,104.151 341.863,124.136 351.151 C 142.487 359.679,152.602 367.683,176.682 392.733 C 186.869 403.329,191.507 398.985,198.444 372.350 L 201.388 361.047 200.699 313.953 C 200.321 288.052,199.445 254.041,198.754 238.372 C 197.269 204.732,198.915 167.472,202.323 157.566 C 205.618 147.989,202.125 143.946,184.764 137.239 L 175.924 133.824 166.741 137.170 C 161.690 139.010,153.110 141.896,147.674 143.583 C 142.238 145.270,137.137 146.925,136.337 147.260 C 135.241 147.719,134.884 145.452,134.884 138.039 L 134.884 128.210 149.128 119.857 C 156.962 115.262,170.567 107.143,179.360 101.814 C 188.154 96.484,195.349 92.321,195.349 92.562 C 195.349 92.803,196.412 92.090,197.712 90.977 C 199.012 89.864,200.392 89.129,200.780 89.344 C 201.167 89.558,201.804 89.251,202.196 88.662 C 203.078 87.332,216.279 78.889,216.279 79.654 C 216.279 80.449,220.686 76.876,225.991 71.779 C 234.673 63.437,230.628 51.350,213.384 34.106 C 197.293 18.015,187.476 18.299,194.303 34.658 C 196.234 39.285,196.143 39.468,178.530 66.279 C 160.749 93.347,136.110 122.019,135.067 116.855 C 134.847 115.770,135.532 102.769,136.589 87.964 C 138.248 64.716,139.432 52.502,142.648 25.483 C 144.361 11.089,127.751 0.040,104.360 0.015 C 96.846 0.007,90.698 0.251,90.698 0.559 M316.341 2.833 C 314.800 4.689,315.726 7.093,320.402 13.372 C 324.037 18.253,329.771 29.990,331.211 35.494 C 331.954 38.335,332.909 80.010,333.689 143.605 C 334.386 200.523,335.702 260.698,336.613 277.326 C 337.525 293.953,338.628 317.242,339.065 329.078 L 339.860 350.598 335.043 354.950 C 332.394 357.344,329.117 359.302,327.762 359.302 C 323.534 359.302,301.048 355.764,290.637 353.460 C 270.793 349.069,270.529 353.119,289.826 365.922 C 297.660 371.120,309.961 380.666,317.162 387.135 L 330.254 398.898 347.921 398.577 L 365.587 398.256 369.325 387.209 C 374.498 371.919,374.835 367.049,372.777 337.205 C 371.786 322.818,370.430 301.105,369.766 288.953 C 369.101 276.802,368.050 257.965,367.428 247.093 C 366.807 236.221,365.959 202.994,365.544 173.256 C 364.607 106.212,365.784 80.136,371.743 35.874 C 373.908 19.803,325.979 -8.781,316.341 2.833 M21.377 64.467 C 17.798 73.792,47.628 124.309,60.592 130.878 C 68.748 135.011,77.527 132.435,77.958 125.783 C 77.985 125.352,78.458 122.668,79.008 119.818 C 80.142 113.941,77.923 105.265,71.760 91.477 L 68.211 83.536 47.490 73.163 C 26.664 62.739,22.564 61.373,21.377 64.467 M240.199 111.130 C 237.534 113.795,238.253 115.743,244.924 123.927 C 253.389 134.313,255.061 156.880,250.947 205.233 C 248.441 234.687,249.929 244.953,257.798 252.494 C 263.885 258.327,269.426 261.033,271.595 259.233 C 272.509 258.475,273.256 258.251,273.256 258.735 C 273.256 259.220,274.302 258.286,275.581 256.659 C 277.843 253.784,277.907 251.942,277.907 189.860 L 277.907 126.016 274.709 122.975 C 266.362 115.037,243.976 107.353,240.199 111.130 " stroke="none" fill="#000000" fill-rule="evenodd"></path></g></svg>