<svg id="svg" version="1.1" xmlns="http://www.w3.org/2000/svg" xmlns:xlink="http://www.w3.org/1999/xlink" width="400" height="400" viewBox="0, 0, 400,400"><g id="svgg"><path id="path0" d="M245.156 91.074 C 213.931 94.525,190.850 126.059,197.353 156.383 C 197.857 158.732,198.398 158.554,192.356 158.026 C 151.294 154.436,110.723 133.483,86.222 103.211 C 83.983 100.445,84.206 100.384,82.356 104.267 C 70.952 128.194,77.749 157.051,98.407 172.409 C 101.517 174.721,101.560 174.644,97.403 174.193 C 91.190 173.519,85.555 171.951,79.907 169.325 C 75.776 167.404,76.152 167.102,76.487 172.063 C 78.067 195.487,94.035 215.017,116.848 221.429 L 120.293 222.397 117.658 223.013 C 111.701 224.404,104.093 224.650,97.977 223.650 C 95.361 223.222,95.458 223.062,96.556 225.990 C 103.607 244.786,122.063 259.331,141.156 261.139 C 142.427 261.259,144.229 261.448,145.161 261.557 L 146.856 261.757 145.517 262.830 C 126.039 278.439,95.030 287.346,68.978 284.817 C 67.316 284.656,65.909 284.566,65.851 284.618 C 65.649 284.801,73.561 289.400,78.616 292.037 C 124.354 315.904,182.995 314.911,227.911 289.508 C 275.053 262.847,305.864 209.845,306.692 153.986 L 306.826 144.949 310.557 142.053 C 318.739 135.699,327.397 126.582,332.740 118.691 C 334.211 116.519,334.205 116.512,331.849 117.554 C 325.975 120.151,315.812 123.096,308.132 124.425 C 302.555 125.390,302.443 125.371,304.716 123.851 C 312.474 118.663,319.363 110.839,323.520 102.496 C 324.987 99.552,326.852 94.933,326.574 94.933 C 326.492 94.933,324.859 95.811,322.946 96.884 C 315.954 100.805,305.532 104.822,296.638 107.025 L 291.942 108.188 289.313 105.738 C 277.325 94.570,261.393 89.279,245.156 91.074 " stroke="none" fill="#fbfbfb" fill-rule="evenodd"></path><path id="path1" d="M56.810 0.550 C 28.589 4.958,6.836 25.816,1.020 54.044 L 0.178 58.133 0.178 200.000 L 0.178 341.867 0.999 345.920 C 6.486 373.015,26.985 393.514,54.080 399.001 L 58.133 399.822 200.000 399.822 L 341.867 399.822 345.920 399.001 C 373.005 393.516,393.516 373.005,399.001 345.920 L 399.822 341.867 399.822 200.000 L 399.822 58.133 399.001 54.080 C 393.530 27.067,373.314 6.779,346.114 1.004 L 342.222 0.178 201.067 0.122 C 83.481 0.075,59.393 0.147,56.810 0.550 M257.347 91.039 C 269.217 92.320,280.457 97.488,289.313 105.738 L 291.942 108.188 296.638 107.025 C 305.532 104.822,315.954 100.805,322.946 96.884 C 324.859 95.811,326.492 94.933,326.574 94.933 C 326.852 94.933,324.987 99.552,323.520 102.496 C 319.363 110.839,312.474 118.663,304.716 123.851 C 302.443 125.371,302.555 125.390,308.132 124.425 C 315.812 123.096,325.975 120.151,331.849 117.554 C 334.205 116.512,334.211 116.519,332.740 118.691 C 327.397 126.582,318.739 135.699,310.557 142.053 L 306.826 144.949 306.692 153.986 C 305.864 209.845,275.053 262.847,227.911 289.508 C 182.995 314.911,124.354 315.904,78.616 292.037 C 73.561 289.400,65.649 284.801,65.851 284.618 C 65.909 284.566,67.316 284.656,68.978 284.817 C 95.030 287.346,126.039 278.439,145.517 262.830 L 146.856 261.757 145.161 261.557 C 144.229 261.448,142.427 261.259,141.156 261.139 C 122.063 259.331,103.607 244.786,96.556 225.990 C 95.458 223.062,95.361 223.222,97.977 223.650 C 104.093 224.650,111.701 224.404,117.658 223.013 L 120.293 222.397 116.848 221.429 C 94.035 215.017,78.067 195.487,76.487 172.063 C 76.152 167.102,75.776 167.404,79.907 169.325 C 85.555 171.951,91.190 173.519,97.403 174.193 C 101.560 174.644,101.517 174.721,98.407 172.409 C 77.749 157.051,70.952 128.194,82.356 104.267 C 84.206 100.384,83.983 100.445,86.222 103.211 C 110.723 133.483,151.294 154.436,192.356 158.026 C 198.398 158.554,197.857 158.732,197.353 156.383 C 189.784 121.088,220.975 87.116,257.347 91.039 " stroke="none" fill="#44acdc" fill-rule="evenodd"></path></g></svg>