<svg id="svg" xmlns="http://www.w3.org/2000/svg" xmlns:xlink="http://www.w3.org/1999/xlink" width="400" height="400" viewBox="0, 0, 400,400"><g id="svgg"><path id="path0" d="M3.404 12.168 L 3.404 15.926 12.128 16.410 C 27.444 17.259,34.509 21.506,36.732 31.200 C 38.402 38.480,38.411 224.717,36.742 231.202 C 34.200 241.075,26.963 245.626,12.383 246.518 L 3.404 247.067 3.404 250.768 L 3.404 254.468 56.596 254.468 L 109.787 254.468 109.787 250.761 L 109.787 247.053 101.030 246.606 C 76.301 245.344,74.715 240.938,74.997 174.255 L 75.140 140.426 87.570 140.446 L 100.000 140.467 115.296 161.936 C 123.709 173.743,141.558 198.532,154.961 217.021 C 168.363 235.511,179.862 251.504,180.513 252.563 L 181.698 254.487 215.317 254.265 L 248.936 254.043 249.208 250.725 C 249.514 246.985,248.571 245.993,244.681 245.965 C 239.883 245.929,227.990 242.558,221.438 239.377 C 207.140 232.435,202.656 226.948,140.072 139.790 C 137.798 136.623,137.198 135.219,138.007 134.960 C 138.635 134.759,142.404 133.585,146.383 132.353 C 206.259 113.802,215.125 45.052,161.131 17.994 C 144.827 9.824,137.586 9.125,65.319 8.740 L 3.404 8.410 3.404 12.168 M121.601 26.604 C 142.939 34.210,153.862 51.315,152.981 75.745 C 151.769 109.351,126.864 127.483,81.702 127.638 L 75.319 127.659 75.319 77.079 L 75.319 26.498 82.553 25.528 C 86.532 24.994,90.170 24.403,90.638 24.214 C 94.051 22.836,115.724 24.509,121.601 26.604 M289.362 240.426 L 289.362 285.106 244.681 285.106 L 200.000 285.106 200.000 293.617 L 200.000 302.128 244.681 302.128 L 289.362 302.128 289.362 347.234 L 289.362 392.340 297.872 392.340 L 306.383 392.340 306.383 347.234 L 306.383 302.128 351.489 302.128 L 396.596 302.128 396.596 293.617 L 396.596 285.106 351.489 285.106 L 306.383 285.106 306.383 240.426 L 306.383 195.745 297.872 195.745 L 289.362 195.745 289.362 240.426 " stroke="none" fill="#000000" fill-rule="evenodd"></path></g></svg>