<svg id="svg" version="1.1" xmlns="http://www.w3.org/2000/svg" xmlns:xlink="http://www.w3.org/1999/xlink" width="400" height="400" viewBox="0, 0, 400,400"><g id="svgg"><path id="path0" d="M178.844 100.126 C 119.830 101.057,97.309 102.613,89.016 106.334 C 69.082 115.278,63.651 135.331,63.651 200.000 C 63.651 274.802,70.564 291.938,102.578 296.495 C 137.187 301.420,285.137 300.700,305.441 295.507 C 321.346 291.439,330.864 278.145,333.687 256.052 C 336.166 236.654,337.262 187.252,335.685 166.044 C 334.130 145.139,333.349 139.400,330.945 131.216 C 325.939 114.176,315.968 105.410,299.200 103.305 C 283.322 101.312,216.143 99.538,178.844 100.126 M208.450 176.934 C 228.442 187.813,244.924 196.825,245.076 196.961 C 245.294 197.158,172.470 236.800,171.890 236.800 C 171.804 236.800,171.733 218.880,171.733 196.978 C 171.733 175.076,171.816 157.156,171.916 157.156 C 172.017 157.156,188.457 166.056,208.450 176.934 " stroke="none" fill="#fbfbfb" fill-rule="evenodd"></path><path id="path1" d="M56.996 0.552 C 30.417 4.442,8.571 24.078,1.963 50.017 C -0.141 58.277,-0.019 48.455,0.084 201.778 L 0.178 342.222 1.004 346.114 C 6.781 373.325,27.056 393.528,54.080 399.001 L 58.133 399.822 200.000 399.822 L 341.867 399.822 345.920 399.001 C 373.005 393.516,393.516 373.005,399.001 345.920 L 399.822 341.867 399.822 199.822 L 399.822 57.778 398.856 53.313 C 393.071 26.573,373.058 6.725,346.114 1.004 L 342.222 0.178 201.244 0.125 C 84.722 0.082,59.699 0.156,56.996 0.552 M245.511 100.630 C 297.610 101.992,307.205 103.153,316.132 109.175 C 327.852 117.079,332.590 128.999,334.924 156.444 C 335.919 168.147,336.081 172.798,336.251 194.489 C 336.705 252.194,333.100 274.497,321.422 286.241 C 316.527 291.164,311.874 293.862,305.441 295.507 C 285.137 300.700,137.187 301.420,102.578 296.495 C 70.564 291.938,63.651 274.802,63.651 200.000 C 63.651 135.331,69.082 115.278,89.016 106.334 C 97.309 102.613,119.830 101.057,178.844 100.126 C 190.133 99.948,231.318 100.260,245.511 100.630 M171.733 196.978 C 171.733 218.880,171.804 236.800,171.890 236.800 C 172.470 236.800,245.294 197.158,245.076 196.961 C 244.712 196.634,172.154 157.156,171.916 157.156 C 171.816 157.156,171.733 175.076,171.733 196.978 " stroke="none" fill="#ED2525" fill-rule="evenodd"></path></g></svg>