<?xml version="1.0"?>
<!DOCTYPE svg PUBLIC "-//W3C//DTD SVG 1.1//EN" "http://www.w3.org/Graphics/SVG/1.1/DTD/svg11.dtd">
<svg xmlns="http://www.w3.org/2000/svg" xmlns:xlink="http://www.w3.org/1999/xlink" height="1.04167in" style="shape-rendering:geometricPrecision; text-rendering:geometricPrecision; image-rendering:optimizeQuality; fill-rule:evenodd; clip-rule:evenodd" version="1.1" viewBox="0 0 5067 5067" width="1.04167in" xml:space="preserve"><defs><style type="text/css">
   <![CDATA[
    .fil1 {fill:#FEFEFE}
    .fil0 {fill:#ED2524}
   ]]>
  </style></defs><g id="Layer_x0020_1"><g id="_541894160"><rect class="fil0" height="5067" rx="489" ry="489" width="5067" style="fill: #ED2524;"/><path class="fil1" d="M3110 2497l-933 504 0 -776 0 -236 421 229 512 279zm1116 -684c0,0 -33,-248 -137,-357 -131,-144 -278,-145 -346,-153 -483,-36 -1208,-36 -1208,-36l-2 0c0,0 -725,0 -1209,36 -67,8 -214,9 -346,153 -103,109 -137,357 -137,357 0,0 -35,292 -35,583l0 36 0 238c0,291 35,583 35,583 0,0 34,248 137,357 132,144 304,139 381,154 277,28 1175,36 1175,36 0,0 726,-1 1209,-37 68,-9 215,-9 346,-153 104,-109 137,-357 137,-357 0,0 35,-292 35,-583l0 -223 0 -51c0,-291 -35,-583 -35,-583z" style="fill: #FEFEFE;"/></g></g>
	<metadata>
		<rdf:RDF xmlns:rdf="http://www.w3.org/1999/02/22-rdf-syntax-ns#" xmlns:rdfs="http://www.w3.org/2000/01/rdf-schema#" xmlns:dc="http://purl.org/dc/elements/1.1/">
			<rdf:Description about="https://iconscout.com/legal#licenses" dc:title="1783350,internet,social media,youtube" dc:description="1783350,internet,social media,youtube" dc:publisher="Iconscout" dc:date="2017-02-24" dc:format="image/svg+xml" dc:language="en">
				<dc:creator>
					<rdf:Bag>
						<rdf:li>Iconscout Store</rdf:li>
					</rdf:Bag>
				</dc:creator>
			</rdf:Description>
		</rdf:RDF>
    </metadata></svg>
